<svg version="1.0" xmlns="http://www.w3.org/2000/svg"
 width="300.000000pt" height="304.000000pt" viewBox="0 0 300.000000 304.000000"
 preserveAspectRatio="xMidYMid meet">
<g transform="translate(0.000000,304.000000) scale(0.100000,-0.100000)"
fill="#000000" stroke="none">
<path d="M1015 2883 c-63 -14 -95 -31 -140 -74 -27 -26 -69 -65 -91 -86 -30
-29 -67 -49 -135 -73 -127 -45 -164 -64 -188 -99 -31 -43 -25 -91 21 -177 25
-46 115 -123 178 -153 48 -23 68 -26 158 -26 l103 0 -5 -150 c-2 -82 -10 -202
-16 -265 -14 -142 -8 -242 32 -485 52 -326 34 -494 -75 -685 -41 -72 -43 -74
-107 -96 -36 -13 -75 -23 -86 -24 -33 0 -212 -48 -247 -66 -45 -23 -77 -54
-77 -75 0 -63 203 -127 520 -164 181 -22 1191 -21 1375 0 238 28 411 70 476
116 24 17 30 27 27 52 -4 40 -48 71 -142 98 -39 11 -77 23 -85 25 -10 3 -6 13
14 39 78 103 100 224 87 474 -11 211 -3 258 65 372 66 112 31 155 -80 96 -68
-36 -142 -114 -182 -192 -15 -30 -29 -55 -31 -55 -2 0 -19 33 -38 74 -76 165
-153 254 -401 461 -341 284 -376 341 -450 733 -27 141 -59 234 -100 288 -30
39 -120 101 -167 114 -33 10 -175 12 -213 3z"/>
</g>
<g transform="translate(0.000000,304.000000) scale(0.050000,-0.050000)" stroke="none">
<path d="M2630 5539 c-7 -11 -21 -99 -30 -195 -20 -214 -42 -273 -136 -370 -253 -260
-662 -99 -714 281 -7 58 -30 125 -49 149 l-36 44 -47 -73 c-43 -66 -75 -83 -308 -167 
-341 -122 -412 -193 -298 -298 42 -39 47 -50 20 -50 -98 0 147 -254 323 -335 151 -69 
320 -69 535 -1 88 28 210 56 270 63 l110 11 -103 -37 c-205 -74 -261 -146 -237 -305 7 
-49 -2 -259 -21 -467 -42 -468 -31 -770 43 -1189 112 -632 79 -949 -141 -1374 -75 -144 
-100 -209 -84 -225 15 -15 1 -21 -49 -21 -151 0 -325 -129 -351 -261 l-13 -62 260 6 c242 
7 264 11 340 61 209 138 576 764 776 1323 l64 178 30 -76 c33 -81 -35 -275 -234 -669 -41 
-82 -109 -233 -151 -336 l-77 -186 44 -18 c38 -15 35 -18 -25 -19 -97 -2 -223 -69 -276 
-147 -75 -111 -69 -114 194 -114 l240 0 69 69 c98 98 220 312 322 564 93 228 313 497 
484 592 51 29 41 13 -51 -80 -135 -135 -212 -280 -253 -481 -46 -219 -30 -248 160 
-290 22 -5 -14 -10 -81 -12 -204 -4 -388 -134 -421 -297 l-13 -65 660 0 c673 0 807 11 
965 77 50 21 154 57 232 81 461 138 557 329 558 1112 l0 540 65 136 c35 75 83 163 107 
196 58 83 33 95 -74 37 -237 -128 -422 -466 -430 -787 l-2 -82 -20 70 c-99 340 -129 427 
-190 550 -147 292 -332 498 -746 831 -646 518 -783 725 -912 1378 -105 537 -231 849 -298 740z"/> 
</g> 
</svg>
